<svg x="0" y="0" version="1.1" xmlns="http://www.w3.org/2000/svg" xmlns:xlink="http://www.w3.org/1999/xlink" viewBox="0 0 32 32" width="64" height="64" style="fill: rgb(255, 255, 255);"><g fill="none" stroke="none" stroke-width="1" stroke-linecap="butt" stroke-linejoin="miter" stroke-miterlimit="10" stroke-dasharray="" stroke-dashoffset="0" font-family="none" font-weight="none" font-size="none" text-anchor="start" mix-blend-mode="normal"><g><g><path d="M0,32l0,-32l32,0l0,32z" fill="none" font-family="sans-serif" font-weight="normal" font-size="12"/><g fill="#ffffff" font-family="Bitstream Vera Sans" font-weight="normal" font-size="12"><path d="M16,4c-5.11135,0 -9.38299,3.16109 -11.125,7.625l1.84375,0.75c1.45799,-3.73609 4.9926,-6.375 9.28125,-6.375c3.24037,0 6.1336,1.58956 7.9375,4l-3.9375,0l0,2l6,0l1,0l0,-1l0,-6l-2,0l0,3.09375c-2.18997,-2.51292 -5.42906,-4.09375 -9,-4.09375z M25.28125,19.625c-1.45799,3.73609 -4.9926,6.375 -9.28125,6.375c-3.27648,0 -6.15657,-1.61166 -7.96875,-4l3.96875,0l0,-2l-6,0l-1,0l0,1l0,6l2,0l0,-3.09375c2.18859,2.47927 5.39461,4.09375 9,4.09375c5.11135,0 9.38299,-3.16109 11.125,-7.625z"/></g><g fill="#ffffff" font-family="HelveticaNeue-Light, &quot;Helvetica Neue Light&quot;, &quot;Helvetica Neue&quot;, &quot;Open Sans Local&quot;, Arial, sans-serif" font-weight="300" font-size="15"><path d="M4.72137,15.2064c-0.04084,0.35048 -0.17036,0.6208 -0.38857,0.81097c-0.2176,0.19078 -0.50712,0.28617 -0.86857,0.28617c-0.39131,0 -0.70491,-0.1405 -0.9408,-0.42149c-0.2365,-0.28099 -0.35474,-0.65676 -0.35474,-1.12731l0,-0.31817c0,-0.30842 0.05516,-0.57935 0.16549,-0.8128c0.10971,-0.23406 0.26575,-0.41356 0.46811,-0.53851c0.20175,-0.12556 0.4355,-0.18834 0.70126,-0.18834c0.3517,0 0.6339,0.09844 0.84663,0.29531c0.21272,0.19627 0.33646,0.46842 0.3712,0.81646l-0.43977,0c-0.03779,-0.26453 -0.12008,-0.45592 -0.24686,-0.57417c-0.12678,-0.11825 -0.30385,-0.17737 -0.5312,-0.17737c-0.27977,0 -0.4989,0.10331 -0.65737,0.30994c-0.15848,0.20602 -0.23771,0.4995 -0.23771,0.88046l0,0.32091c0,0.36023 0.07497,0.6464 0.22491,0.85851c0.15055,0.21272 0.36084,0.31909 0.63086,0.31909c0.2432,0 0.42971,-0.05516 0.55954,-0.16549c0.12983,-0.10971 0.21577,-0.3011 0.25783,-0.57417z M5.67314,14.0928c0.18651,-0.22918 0.42941,-0.34377 0.72869,-0.34377c0.52053,0 0.78293,0.29349 0.7872,0.88046l0,1.62834l-0.42057,0l0,-1.63017c-0.00183,-0.17737 -0.04267,-0.30872 -0.12251,-0.39406c-0.07924,-0.08472 -0.20328,-0.12709 -0.37211,-0.12709c-0.13653,0 -0.2563,0.03627 -0.35931,0.1088c-0.10362,0.07314 -0.18408,0.16884 -0.24137,0.28709l0,1.75543l-0.42149,0l0,-3.49714l0.42149,0z M9.34126,16.25783c-0.02438,-0.04876 -0.04419,-0.13531 -0.05943,-0.25966c-0.19566,0.20358 -0.42941,0.30537 -0.70126,0.30537c-0.2432,0 -0.44251,-0.06888 -0.59794,-0.20663c-0.15543,-0.13714 -0.23314,-0.31116 -0.23314,-0.52206c0,-0.25661 0.09752,-0.45592 0.29257,-0.59794c0.19505,-0.14202 0.46933,-0.21303 0.82286,-0.21303l0.4096,0l0,-0.19291c0,-0.1475 -0.04389,-0.26484 -0.13166,-0.352c-0.08838,-0.08716 -0.21821,-0.13074 -0.38949,-0.13074c-0.14994,0 -0.27581,0.03779 -0.3776,0.11337c-0.10179,0.07619 -0.15269,0.16823 -0.15269,0.27611l-0.42331,0c0,-0.12312 0.04358,-0.24198 0.13074,-0.35657c0.08716,-0.11459 0.20541,-0.20541 0.35474,-0.27246c0.14994,-0.06644 0.31421,-0.09966 0.4928,-0.09966c0.28404,0 0.50651,0.07101 0.66743,0.21303c0.16091,0.14141 0.24442,0.33676 0.25051,0.58606l0,1.13371c0,0.22613 0.02895,0.40594 0.08686,0.53943l0,0.03657l-0.4416,0 M8.64183,15.93691c0.13227,0 0.25752,-0.03413 0.37577,-0.1024c0.11825,-0.06827 0.20389,-0.15726 0.25691,-0.26697l0,-0.50469l-0.33006,0c-0.51566,0 -0.77349,0.15086 -0.77349,0.45257c0,0.13227 0.04389,0.23558 0.13166,0.30994c0.08777,0.07436 0.20084,0.11154 0.3392,0.11154z M10.75474,13.79474l0.01371,0.30903c0.18834,-0.2365 0.43429,-0.35474 0.73783,-0.35474c0.52053,0 0.78293,0.29349 0.7872,0.88046l0,1.62834l-0.42057,0l0,-1.63017c-0.00183,-0.17737 -0.04267,-0.30872 -0.12251,-0.39406c-0.07924,-0.08472 -0.20328,-0.12709 -0.37211,-0.12709c-0.13653,0 -0.2563,0.03627 -0.35931,0.1088c-0.10301,0.07314 -0.18347,0.16884 -0.24137,0.28709l0,1.75543l-0.42149,0l0,-2.46309z M12.82926,15.00526c0,-0.384 0.08869,-0.68937 0.26606,-0.91611c0.17737,-0.22674 0.41265,-0.34011 0.70583,-0.34011c0.3005,0 0.53486,0.10606 0.70309,0.31817l0.02103,-0.27246l0.38491,0l0,2.40366c0,0.31878 -0.09448,0.57021 -0.28343,0.75429c-0.18895,0.18347 -0.44282,0.2752 -0.7616,0.2752c-0.17798,0 -0.352,-0.0381 -0.52206,-0.11429c-0.16945,-0.07558 -0.29897,-0.1795 -0.38857,-0.31177l0.21851,-0.25234c0.18042,0.22309 0.40107,0.33463 0.66194,0.33463c0.2048,0 0.3645,-0.0576 0.47909,-0.1728c0.1152,-0.11581 0.1728,-0.27825 0.1728,-0.48731l0,-0.21211c-0.16884,0.19444 -0.39893,0.29166 -0.69029,0.29166c-0.2883,0 -0.52175,-0.11611 -0.70034,-0.34834c-0.17798,-0.23223 -0.26697,-0.54888 -0.26697,-0.94994 M13.25257,15.05371c0,0.27733 0.05699,0.49554 0.17097,0.65463c0.11337,0.15848 0.27276,0.23771 0.47817,0.23771c0.26514,0 0.46019,-0.12069 0.58514,-0.36206l0,-1.12457c-0.12922,-0.23528 -0.32305,-0.35291 -0.58149,-0.35291c-0.2048,0 -0.3648,0.07954 -0.48,0.23863c-0.1152,0.1597 -0.1728,0.39589 -0.1728,0.70857z M16.56777,16.30354c-0.33402,0 -0.60587,-0.10971 -0.81554,-0.32914c-0.20968,-0.21943 -0.31451,-0.51291 -0.31451,-0.88046l0,-0.0768c0,-0.24442 0.04693,-0.46263 0.1408,-0.65463c0.09326,-0.192 0.2237,-0.34225 0.39131,-0.45074c0.16762,-0.1085 0.34926,-0.16274 0.54491,-0.16274c0.32061,0 0.5696,0.10545 0.74697,0.31634c0.17737,0.2109 0.26606,0.51291 0.26606,0.90606l0,0.17554l-1.66857,0c0.0061,0.24259 0.0771,0.43855 0.21303,0.58789c0.13592,0.14994 0.30842,0.22491 0.51749,0.22491c0.14933,0 0.2755,-0.03048 0.37851,-0.09143c0.10301,-0.06034 0.19322,-0.1408 0.27063,-0.24137l0.25783,0.20023c-0.20663,0.31756 -0.51627,0.47634 -0.92891,0.47634 M16.51474,14.09463c-0.17006,0 -0.31269,0.06187 -0.42789,0.1856c-0.1152,0.12373 -0.18651,0.29714 -0.21394,0.52023l1.23429,0l0,-0.032c-0.01219,-0.21394 -0.06979,-0.37973 -0.1728,-0.49737c-0.10362,-0.11764 -0.2435,-0.17646 -0.41966,-0.17646z M19.70469,16.25783l-0.43703,0l0,-3.3152l0.43703,0z M20.83383,13.79474l0.01189,0.27246c0.18042,-0.21211 0.42392,-0.31817 0.73051,-0.31817c0.34438,0 0.57905,0.13196 0.704,0.39589c0.08168,-0.11825 0.18804,-0.21394 0.31909,-0.28709c0.13166,-0.07253 0.28709,-0.1088 0.46629,-0.1088c0.54004,0 0.81463,0.28617 0.82377,0.85851l0,1.65029l-0.42149,0l0,-1.6256c0,-0.17615 -0.04023,-0.30781 -0.12069,-0.39497c-0.07985,-0.08716 -0.21486,-0.13074 -0.40503,-0.13074c-0.15604,0 -0.28587,0.04663 -0.38949,0.13989c-0.10301,0.09326 -0.16274,0.21882 -0.1792,0.37669l0,1.63474l-0.42423,0l0,-1.61463c0,-0.35779 -0.17524,-0.53669 -0.52571,-0.53669c-0.27611,0 -0.46507,0.11764 -0.56686,0.35291l0,1.7984l-0.42149,0l0,-2.46309z M26.04526,16.25783c-0.02377,-0.04876 -0.04328,-0.13531 -0.05851,-0.25966c-0.19627,0.20358 -0.43002,0.30537 -0.70126,0.30537c-0.2432,0 -0.44251,-0.06888 -0.59794,-0.20663c-0.15543,-0.13714 -0.23314,-0.31116 -0.23314,-0.52206c0,-0.25661 0.09752,-0.45592 0.29257,-0.59794c0.19505,-0.14202 0.46933,-0.21303 0.82286,-0.21303l0.4096,0l0,-0.19291c0,-0.1475 -0.04389,-0.26484 -0.13166,-0.352c-0.08838,-0.08716 -0.21821,-0.13074 -0.38949,-0.13074c-0.15055,0 -0.27642,0.03779 -0.3776,0.11337c-0.10179,0.07619 -0.15269,0.16823 -0.15269,0.27611l-0.42331,0c0,-0.12312 0.04358,-0.24198 0.13074,-0.35657c0.08716,-0.11459 0.20541,-0.20541 0.35474,-0.27246c0.14933,-0.06644 0.3136,-0.09966 0.4928,-0.09966c0.28404,0 0.50651,0.07101 0.66743,0.21303c0.16091,0.14141 0.24442,0.33676 0.25051,0.58606l0,1.13371c0,0.22613 0.02895,0.40594 0.08686,0.53943l0,0.03657l-0.44251,0 M25.34674,15.93691c0.13227,0 0.25752,-0.03413 0.37577,-0.1024c0.11825,-0.06827 0.20389,-0.15726 0.25691,-0.26697l0,-0.50469l-0.33006,0c-0.51627,0 -0.7744,0.15086 -0.7744,0.45257c0,0.13227 0.04419,0.23558 0.13257,0.30994c0.08777,0.07436 0.20084,0.11154 0.3392,0.11154z M26.96137,15.00526c0,-0.384 0.08869,-0.68937 0.26606,-0.91611c0.17737,-0.22674 0.41265,-0.34011 0.70583,-0.34011c0.3005,0 0.53486,0.10606 0.70309,0.31817l0.02103,-0.27246l0.38491,0l0,2.40366c0,0.31878 -0.09448,0.57021 -0.28343,0.75429c-0.18895,0.18347 -0.44282,0.2752 -0.7616,0.2752c-0.17798,0 -0.352,-0.0381 -0.52206,-0.11429c-0.17006,-0.07558 -0.29989,-0.1795 -0.38949,-0.31177l0.21943,-0.25234c0.18042,0.22309 0.40107,0.33463 0.66194,0.33463c0.2048,0 0.3645,-0.0576 0.47909,-0.1728c0.11459,-0.11581 0.17189,-0.27825 0.17189,-0.48731l0,-0.21211c-0.16823,0.19444 -0.39802,0.29166 -0.68937,0.29166c-0.2883,0 -0.52175,-0.11611 -0.70034,-0.34834c-0.17798,-0.23223 -0.26697,-0.54888 -0.26697,-0.94994 M27.38469,15.05371c0,0.27733 0.05669,0.49554 0.17006,0.65463c0.11398,0.15848 0.27337,0.23771 0.47817,0.23771c0.26575,0 0.4608,-0.12069 0.58514,-0.36206l0,-1.12457c-0.12861,-0.23528 -0.32213,-0.35291 -0.58057,-0.35291c-0.2048,0 -0.3648,0.07954 -0.48,0.23863c-0.1152,0.1597 -0.1728,0.39589 -0.1728,0.70857z M30.69897,16.30354c-0.33341,0 -0.60495,-0.10971 -0.81463,-0.32914c-0.20968,-0.21943 -0.31451,-0.51291 -0.31451,-0.88046l0,-0.0768c0,-0.24442 0.04663,-0.46263 0.13989,-0.65463c0.09387,-0.192 0.22461,-0.34225 0.39223,-0.45074c0.16762,-0.1085 0.34926,-0.16274 0.54491,-0.16274c0.32061,0 0.5696,0.10545 0.74697,0.31634c0.17737,0.2109 0.26606,0.51291 0.26606,0.90606l0,0.17554l-1.66857,0c0.0061,0.24259 0.0771,0.43855 0.21303,0.58789c0.13592,0.14994 0.30842,0.22491 0.51749,0.22491c0.14872,0 0.2749,-0.03048 0.37851,-0.09143c0.10301,-0.06034 0.19322,-0.1408 0.27063,-0.24137l0.25691,0.20023c-0.20602,0.31756 -0.51566,0.47634 -0.92891,0.47634 M30.64686,14.09463c-0.17006,0 -0.31269,0.06187 -0.42789,0.1856c-0.1152,0.12373 -0.18651,0.29714 -0.21394,0.52023l1.23429,0l0,-0.032c-0.01219,-0.21394 -0.0701,-0.37973 -0.17371,-0.49737c-0.10301,-0.11764 -0.24259,-0.17646 -0.41874,-0.17646z"/></g></g></g></g></svg>