<svg version="1" xmlns="http://www.w3.org/2000/svg" width="1673.333" height="1673.333" viewBox="0 0 1255.000000 1255.000000"><path d="M923.9 1.1C883.8 3.6 841.4 20.3 810 46c-73.7 60.3-96.2 163.3-54.1 248.1 19.8 39.7 51.5 71.6 90.6 91.2 77.8 38.8 170.1 25 232.2-34.7 19.1-18.3 31.4-35.3 42.7-58.7 23-47.7 26.6-101.4 10.1-151.4C1106.8 65.3 1041 11.3 963 2.1c-12.8-1.5-25.1-1.8-39.1-1zM358 181.7c-1.9.2-9.1 1-16 1.9-65.2 8.3-126.7 35.3-179 78.7-12.4 10.3-36.2 34.5-46.3 47.2-65.5 81.8-91.2 187.9-70.1 289 11.5 55 36 106.1 72.1 150.4 11.9 14.6 35.3 37.6 50.5 49.8 50.4 40.3 109.7 65.4 174.9 73.9 17 2.2 53.1 3 69.9 1.5 83.1-7.3 156.7-40.8 215.4-98 58-56.7 92.2-126.7 102.8-210.1 2-16.4 1.7-64.1-.5-81-7.6-56.3-26-105.1-56.8-151.1-57.1-85.2-149.2-140.4-252.4-151.4-12.6-1.3-54.1-1.9-64.5-.8zM916.1 699.1c-67.4 6-128.3 34.2-175.5 81.4-43.4 43.4-70.7 99.1-79.2 161.5-2.1 15.3-2.4 51.9-.6 66.5 2.9 22 8.5 45.5 15.8 65.4 4.6 12.5 17.7 39.2 24.9 50.6 14.5 22.9 37.4 49 58.5 66.7 20.4 17.2 51.2 35.3 76.7 45.2 55.6 21.5 119.8 24.6 176.3 8.5 36.1-10.3 69.9-27.7 99-50.9 12.5-10 32.9-30.2 42.4-42 26.8-33.5 46.5-74.4 55.5-115.5 5-22.8 5.6-29.6 5.6-60.5-.1-26-.3-31-2.3-42.4-10.9-62.6-37.4-113.4-81.8-156.6-22.2-21.6-42.4-36-69.5-49.4-28.4-14.1-57.2-22.9-89.3-27.1-14.8-1.9-43-2.6-56.5-1.4z"/></svg>